REM DIRINDEX 1\2,1\3,1\4,1\5,1\6
REM DIRNAME cjc129,folder01,folder02,folder03,folder04,folder05
TITLE ""
FILE "DISC3Track06.mp3" MP3
  TRACK 01 AUDIO
    TITLE "0:"
    INDEX 01 00:00:00
  TRACK 02 AUDIO
    TITLE "3:cjc129_2199"
    INDEX 01 00:00:05
  TRACK 03 AUDIO
    TITLE "0:"
    INDEX 01 00:01:17
  TRACK 04 AUDIO
    TITLE "5:cjc129_2200"
    INDEX 01 00:02:63
  TRACK 05 AUDIO
    TITLE "0:"
    INDEX 01 00:06:53
  TRACK 06 AUDIO
    TITLE "4:cjc129_2201"
    INDEX 01 00:07:41
  TRACK 07 AUDIO
    TITLE "0:"
    INDEX 01 00:08:54
  TRACK 08 AUDIO
    TITLE "6:cjc129_2202"
    INDEX 01 00:09:12
  TRACK 09 AUDIO
    TITLE "0:"
    INDEX 01 00:12:58
  TRACK 10 AUDIO
    TITLE "3:cjc129_2203"
    INDEX 01 00:14:33
  TRACK 11 AUDIO
    TITLE "0:"
    INDEX 01 00:15:44
  TRACK 12 AUDIO
    TITLE "5:cjc129_2204"
    INDEX 01 00:17:04
  TRACK 13 AUDIO
    TITLE "0:"
    INDEX 01 00:24:65
  TRACK 14 AUDIO
    TITLE "4:cjc129_2205"
    INDEX 01 00:25:54
  TRACK 15 AUDIO
    TITLE "0:"
    INDEX 01 00:26:66
  TRACK 16 AUDIO
    TITLE "6:cjc129_2206"
    INDEX 01 00:27:26
  TRACK 17 AUDIO
    TITLE "0:"
    INDEX 01 00:31:65
  TRACK 18 AUDIO
    TITLE "3:cjc129_2207"
    INDEX 01 00:33:42
  TRACK 19 AUDIO
    TITLE "0:"
    INDEX 01 00:34:53
  TRACK 20 AUDIO
    TITLE "5:cjc129_2208"
    INDEX 01 00:35:10
  TRACK 21 AUDIO
    TITLE "0:"
    INDEX 01 00:37:44
  TRACK 22 AUDIO
    TITLE "4:cjc129_2209"
    INDEX 01 00:38:31
  TRACK 23 AUDIO
    TITLE "0:"
    INDEX 01 00:39:41
  TRACK 24 AUDIO
    TITLE "6:cjc129_2210"
    INDEX 01 00:39:74
  TRACK 25 AUDIO
    TITLE "0:"
    INDEX 01 00:44:14
  TRACK 26 AUDIO
    TITLE "2:cjc129_2211"
    INDEX 01 00:45:67
  TRACK 27 AUDIO
    TITLE "0:"
    INDEX 01 00:51:18
  TRACK 28 AUDIO
    TITLE "3:cjc129_2212"
    INDEX 01 00:52:28
  TRACK 29 AUDIO
    TITLE "0:"
    INDEX 01 00:53:66
  TRACK 30 AUDIO
    TITLE "5:cjc129_2213"
    INDEX 01 00:55:28
  TRACK 31 AUDIO
    TITLE "0:"
    INDEX 01 01:00:15
  TRACK 32 AUDIO
    TITLE "4:cjc129_2214"
    INDEX 01 01:01:03
  TRACK 33 AUDIO
    TITLE "0:"
    INDEX 01 01:02:42
  TRACK 34 AUDIO
    TITLE "6:cjc129_2215"
    INDEX 01 01:02:71
  TRACK 35 AUDIO
    TITLE "0:"
    INDEX 01 01:08:17
  TRACK 36 AUDIO
    TITLE "3:cjc129_2216"
    INDEX 01 01:09:65
  TRACK 37 AUDIO
    TITLE "0:"
    INDEX 01 01:11:23
  TRACK 38 AUDIO
    TITLE "5:cjc129_2217"
    INDEX 01 01:12:52
  TRACK 39 AUDIO
    TITLE "0:"
    INDEX 01 01:17:14
  TRACK 40 AUDIO
    TITLE "4:cjc129_2218"
    INDEX 01 01:18:06
  TRACK 41 AUDIO
    TITLE "0:"
    INDEX 01 01:19:38
  TRACK 42 AUDIO
    TITLE "6:cjc129_2219"
    INDEX 01 01:19:68
  TRACK 43 AUDIO
    TITLE "0:"
    INDEX 01 01:24:36
  TRACK 44 AUDIO
    TITLE "3:cjc129_2220"
    INDEX 01 01:26:13
  TRACK 45 AUDIO
    TITLE "0:"
    INDEX 01 01:27:57
  TRACK 46 AUDIO
    TITLE "5:cjc129_2221"
    INDEX 01 01:28:14
  TRACK 47 AUDIO
    TITLE "0:"
    INDEX 01 01:30:20
  TRACK 48 AUDIO
    TITLE "4:cjc129_2222"
    INDEX 01 01:31:12
  TRACK 49 AUDIO
    TITLE "0:"
    INDEX 01 01:32:53
  TRACK 50 AUDIO
    TITLE "6:cjc129_2223"
    INDEX 01 01:33:11
  TRACK 51 AUDIO
    TITLE "0:"
    INDEX 01 01:37:50
  TRACK 52 AUDIO
    TITLE "3:cjc129_2224"
    INDEX 01 01:39:25
  TRACK 53 AUDIO
    TITLE "0:"
    INDEX 01 01:40:62
  TRACK 54 AUDIO
    TITLE "5:cjc129_2225"
    INDEX 01 01:41:18
  TRACK 55 AUDIO
    TITLE "0:"
    INDEX 01 01:45:61
  TRACK 56 AUDIO
    TITLE "4:cjc129_2226"
    INDEX 01 01:46:51
  TRACK 57 AUDIO
    TITLE "0:"
    INDEX 01 01:48:12
  TRACK 58 AUDIO
    TITLE "6:cjc129_2227"
    INDEX 01 01:48:42
  TRACK 59 AUDIO
    TITLE "0:"
    INDEX 01 01:53:12
  TRACK 60 AUDIO
    TITLE "3:cjc129_2228"
    INDEX 01 01:54:60
  TRACK 61 AUDIO
    TITLE "0:"
    INDEX 01 01:56:26
  TRACK 62 AUDIO
    TITLE "5:cjc129_2229"
    INDEX 01 01:56:63
  TRACK 63 AUDIO
    TITLE "0:"
    INDEX 01 01:58:56
  TRACK 64 AUDIO
    TITLE "4:cjc129_2230"
    INDEX 01 01:59:44
  TRACK 65 AUDIO
    TITLE "0:"
    INDEX 01 02:01:11
  TRACK 66 AUDIO
    TITLE "6:cjc129_2231"
    INDEX 01 02:01:46
  TRACK 67 AUDIO
    TITLE "0:"
    INDEX 01 02:05:48
